<svg height="32" viewBox="0 0 32 32" width="32" xmlns="http://www.w3.org/2000/svg"><path d="m23.214.586c-.376-.376-.884-.586-1.416-.586h-11.596c-.53 0-1.04.21-1.414.586l-8.2 8.202c-.378.374-.588.882-.588 1.414v11.598c0 .53.21 1.04.586 1.414l8.2 8.202c.376.374.884.584 1.416.584h11.598c.53 0 1.04-.21 1.414-.586l8.2-8.202c.376-.374.586-.882.586-1.414v-11.596c0-.53-.21-1.04-.586-1.414zm6.786 21.212-8.202 8.202h-11.596l-8.202-8.202v-11.596l8.202-8.202h11.598l8.2 8.202zm-14-15.798c-1.104 0-2 .896-2 2v10c0 1.104.896 2 2 2s2-.896 2-2v-10c0-1.104-.896-2-2-2zm-2 18a2 2 1080 1 0 4 0 2 2 1080 1 0 -4 0z"/></svg>